<?xml version="1.0" encoding="utf-8"?>
<!-- Generator: Adobe Illustrator 22.1.0, SVG Export Plug-In . SVG Version: 6.00 Build 0)  -->
<svg version="1.1" id="图层_1" xmlns="http://www.w3.org/2000/svg" xmlns:xlink="http://www.w3.org/1999/xlink" x="0px" y="0px"
	 viewBox="0 0 60 60" style="enable-background:new 0 0 60 60;" xml:space="preserve">
<style type="text/css">
	.st0{opacity:0.28;}
	.st1{fill:#5D8EF9;}
	.st2{fill:#2371F5;}
	.st3{fill:#8AC9F9;}
	.st4{fill:#1890FF;}
	.st5{fill:#FFE37B;}
</style>
<g>
	<g class="st0">
		<path class="st1" d="M25,16.7l0.2,0.1L25,16.8c-1.2,0.3-2.2,1.3-2.5,2.5l-0.1,0.2l-0.1-0.2c-0.3-1.2-1.3-2.2-2.5-2.5l-0.2-0.1
			l0.2-0.1c1.2-0.3,2.2-1.3,2.5-2.5l0.1-0.2l0.1,0.2C22.8,15.4,23.7,16.4,25,16.7L25,16.7z"/>
		<path class="st1" d="M48.1,18l0.2,0L48.1,18c-0.9,0.3-1.7,1-1.9,2l0,0.2l0-0.2c-0.2-0.9-1-1.7-1.9-1.9L44,18l0.2,0
			c0.9-0.2,1.7-1,1.9-1.9l0-0.2l0,0.2C46.4,17,47.1,17.7,48.1,18L48.1,18z"/>
		<path class="st1" d="M40.2,10.4l0.3,0.1l-0.3,0.1c-1.5,0.4-2.6,1.5-3,3l-0.1,0.3l-0.1-0.3c-0.4-1.5-1.5-2.6-3-3l-0.3-0.1l0.3-0.1
			c1.5-0.4,2.6-1.5,3-3l0.1-0.3l0.1,0.3C37.6,8.8,38.8,10,40.2,10.4L40.2,10.4z"/>
		<path class="st2" d="M24.5,22.2h-2.2c-1.7,0-3,1.3-3,3c0,0.1,0.2,1.1,1.4,1.7c0.8,0.4,2.1,0.4,2.7,0.4h1.4c-0.3-1-0.5-2-0.5-3.1
			C24.3,23.5,24.4,22.8,24.5,22.2z"/>
		<path class="st2" d="M45.4,22.2h-1.7c0.1,0.7,0.2,1.3,0.2,2c0,1.1-0.2,2.1-0.5,3.1h3.3c0.6,0,1.3,0.2,1.7,0.6v-2.6
			C48.4,23.6,47,22.2,45.4,22.2z"/>
		<path class="st1" d="M43.4,27.3c0.3-1,0.5-2,0.5-3.1c0-5.4-4.4-9.8-9.8-9.8c-5.4,0-9.8,4.4-9.8,9.8c0,1.1,0.2,2.1,0.5,3.1H43.4z"
			/>
		<path class="st3" d="M40.7,27.3c0.4-0.9,0.7-2,0.7-3.1c0-4.1-3.3-7.3-7.3-7.3c-4.1,0-7.3,3.3-7.3,7.3c0,1.1,0.2,2.2,0.7,3.1H40.7z
			"/>
		<path class="st4" d="M46.7,48.2H22.4c-1.7,0-3-1.4-3-3V25.1c0,0,0.1,1.1,1.4,1.8c0.8,0.4,2.1,0.4,2.7,0.4h23.2c1.7,0,3,1.4,3,3
			v14.8C49.7,46.9,48.3,48.2,46.7,48.2L46.7,48.2z"/>
		<path class="st3" d="M41.5,41c-0.8,0-1.4-0.6-1.4-1.4v-3.8c0-0.8,0.6-1.4,1.4-1.4h8.2V41H41.5z"/>
		<circle class="st5" cx="42.8" cy="37.7" r="1.4"/>
	</g>
	<g>
		<path class="st1" d="M15.6,21l0.2,0.1l-0.2,0.1c-1.2,0.3-2.2,1.3-2.5,2.5L13,23.9L13,23.7c-0.3-1.2-1.3-2.2-2.5-2.5l-0.2-0.1
			l0.2-0.1c1.2-0.3,2.2-1.3,2.5-2.5l0.1-0.2l0.1,0.2C13.4,19.7,14.4,20.7,15.6,21L15.6,21z"/>
		<path class="st1" d="M38.7,22.3l0.2,0L38.7,22.3c-0.9,0.3-1.7,1-1.9,2l0,0.2l0-0.2c-0.2-0.9-1-1.7-1.9-1.9l-0.2,0l0.2,0
			c0.9-0.2,1.7-1,1.9-1.9l0-0.2l0,0.2C37,21.3,37.8,22.1,38.7,22.3L38.7,22.3z"/>
		<path class="st1" d="M30.9,14.7l0.3,0.1l-0.3,0.1c-1.5,0.4-2.6,1.5-3,3l-0.1,0.3l-0.1-0.3c-0.4-1.5-1.5-2.6-3-3l-0.3-0.1l0.3-0.1
			c1.5-0.4,2.6-1.5,3-3l0.1-0.3l0.1,0.3C28.2,13.2,29.4,14.3,30.9,14.7L30.9,14.7z"/>
		<path class="st2" d="M15.2,26.5H13c-1.7,0-3,1.3-3,3c0,0.1,0.2,1.1,1.4,1.7c0.8,0.4,2.1,0.4,2.7,0.4h1.4c-0.3-1-0.5-2-0.5-3.1
			C15,27.8,15,27.2,15.2,26.5z"/>
		<path class="st2" d="M36,26.5h-1.7c0.1,0.7,0.2,1.3,0.2,2c0,1.1-0.2,2.1-0.5,3.1h3.3c0.6,0,1.3,0.2,1.7,0.6v-2.6
			C39,27.9,37.7,26.5,36,26.5z"/>
		<path class="st1" d="M34,31.6c0.3-1,0.5-2,0.5-3.1c0-5.4-4.4-9.8-9.8-9.8c-5.4,0-9.8,4.4-9.8,9.8c0,1.1,0.2,2.1,0.5,3.1H34z"/>
		<path class="st3" d="M31.4,31.6c0.4-0.9,0.7-2,0.7-3.1c0-4.1-3.3-7.3-7.3-7.3c-4.1,0-7.3,3.3-7.3,7.3c0,1.1,0.2,2.2,0.7,3.1H31.4z
			"/>
		<path class="st4" d="M37.3,52.6H13c-1.7,0-3-1.4-3-3V29.5c0,0,0.1,1.1,1.4,1.8c0.8,0.4,2.1,0.4,2.7,0.4h23.2c1.7,0,3,1.4,3,3v14.8
			C40.3,51.2,39,52.6,37.3,52.6L37.3,52.6z"/>
		<path class="st3" d="M32.1,45.3c-0.8,0-1.4-0.6-1.4-1.4v-3.8c0-0.8,0.6-1.4,1.4-1.4h8.2v6.5H32.1z"/>
		<circle class="st5" cx="33.4" cy="42.1" r="1.4"/>
	</g>
</g>
</svg>
