<?xml version="1.0" standalone="no"?><!DOCTYPE svg PUBLIC "-//W3C//DTD SVG 1.1//EN" "http://www.w3.org/Graphics/SVG/1.1/DTD/svg11.dtd"><svg t="1781023035278" class="icon" viewBox="0 0 1024 1024" version="1.1" xmlns="http://www.w3.org/2000/svg" p-id="25256" xmlns:xlink="http://www.w3.org/1999/xlink" width="200" height="200"><path d="M586.666667 855.893333h-149.333334A55.466667 55.466667 0 0 1 384 800v-80.213333A246.613333 246.613333 0 0 1 508.16 264.533333a243.2 243.2 0 0 1 180.053333 73.813334A245.76 245.76 0 0 1 640 719.786667v80.213333a55.466667 55.466667 0 0 1-53.333333 55.893333z m-145.066667-61.44h140.8v-78.506666a56.746667 56.746667 0 0 1 27.306667-48.213334A183.04 183.04 0 0 0 646.4 384a186.453333 186.453333 0 0 0-272.64 5.973333 182.186667 182.186667 0 0 0-48.64 128 184.32 184.32 0 0 0 89.173333 149.76 56.746667 56.746667 0 0 1 27.306667 48.213334z" fill="#d97706" p-id="25257"></path><path d="M353.28 877.226667m29.44 0l258.56 0q29.44 0 29.44 29.44l0 2.56q0 29.44-29.44 29.44l-258.56 0q-29.44 0-29.44-29.44l0-2.56q0-29.44 29.44-29.44Z" fill="#d97706" p-id="25258"></path><path d="M507.306667 256a29.866667 29.866667 0 0 1-29.44-30.72V116.053333a29.866667 29.866667 0 1 1 59.306666 0v107.52a30.293333 30.293333 0 0 1-29.866666 32.426667zM908.8 536.746667h-107.946667a30.72 30.72 0 0 1 0-61.44h107.946667a30.72 30.72 0 0 1 0 61.44zM223.146667 546.133333H115.2a30.72 30.72 0 0 1-29.866667-31.146666 30.293333 30.293333 0 0 1 29.866667-30.72h107.946667a30.293333 30.293333 0 0 1 29.866666 30.72 30.72 30.72 0 0 1-29.866666 31.146666zM712.96 335.36a30.72 30.72 0 0 1-21.333333-9.386667 32 32 0 0 1 0-42.666666L768 206.08a29.44 29.44 0 0 1 42.666667 0 32 32 0 0 1 0 42.666667l-76.8 75.946666a28.586667 28.586667 0 0 1-20.906667 10.666667zM304.64 341.333333a29.44 29.44 0 0 1-20.48-8.533333L207.36 256a32.853333 32.853333 0 0 1 0-42.666667 29.866667 29.866667 0 0 1 42.666667 0l75.093333 75.093334a32 32 0 0 1 0 42.666666 29.866667 29.866667 0 0 1-20.48 10.24zM645.973333 517.973333a30.293333 30.293333 0 0 1-28.16-21.333333A91.733333 91.733333 0 0 0 547.84 426.666667a31.146667 31.146667 0 0 1-26.453333-33.706667 30.293333 30.293333 0 0 1 33.28-29.013333 150.613333 150.613333 0 0 1 121.173333 113.066666 31.573333 31.573333 0 0 1-18.773333 39.253334 39.68 39.68 0 0 1-11.093334 1.706666z" fill="#d97706" p-id="25259"></path></svg>